{
  "accessors": [
    {
      "bufferView": 2,
      "componentType": 5126,
      "count": 2018,
      "max": [
        1.0184054374694824,
        2.2683396339416504,
        1.1664848327636719
      ],
      "min": [
        -1.842954158782959,
        -0.19227668642997742,
        -1.019934058189392
      ],
      "type": "VEC3"
    },
    {
      "bufferView": 2,
      "byteOffset": 24216,
      "componentType": 5126,
      "count": 2018,
      "max": [
        0.9998701810836792,
        0.9876036047935486,
        0.9998031854629517
      ],
      "min": [
        -0.9999210834503174,
        -0.9998733997344971,
        -0.9998006820678711
      ],
      "type": "VEC3"
    },
    {
      "bufferView": 1,
      "componentType": 5126,
      "count": 2018,
      "max": [
        0.9953708052635193,
        0.9981182217597961
      ],
      "min": [
        0.0011308575049042702,
        0.002097437623888254
      ],
      "type": "VEC2"
    },
    {
      "bufferView": 0,
      "componentType": 5125,
      "count": 10752,
      "type": "SCALAR"
    },
    {
      "bufferView": 2,
      "byteOffset": 48432,
      "componentType": 5126,
      "count": 2042,
      "max": [
        1.163815975189209,
        0.7928322553634644,
        1.1638160943984985
      ],
      "min": [
        -1.163815975189209,
        -0.05827411636710167,
        -1.1638158559799194
      ],
      "type": "VEC3"
    },
    {
      "bufferView": 2,
      "byteOffset": 72936,
      "componentType": 5126,
      "count": 2042,
      "max": [
        0.9996556043624878,
        0.9396570920944214,
        0.9996556043624878
      ],
      "min": [
        -0.9996556043624878,
        -0.9917560815811157,
        -0.9996556043624878
      ],
      "type": "VEC3"
    },
    {
      "bufferView": 1,
      "byteOffset": 16144,
      "componentType": 5126,
      "count": 2042,
      "max": [
        0.9990996718406677,
        0.9990910887718201
      ],
      "min": [
        0.0009005210013128817,
        0.0009011570364236832
      ],
      "type": "VEC2"
    },
    {
      "bufferView": 0,
      "byteOffset": 43008,
      "componentType": 5125,
      "count": 10752,
      "type": "SCALAR"
    },
    {
      "bufferView": 2,
      "byteOffset": 97440,
      "componentType": 5126,
      "count": 72,
      "max": [
        1.0566515922546387,
        0.8749848008155823,
        1.1110275983810425
      ],
      "min": [
        -1.0566515922546387,
        -1.3470706939697266,
        -1.1110275983810425
      ],
      "type": "VEC3"
    },
    {
      "bufferView": 2,
      "byteOffset": 98304,
      "componentType": 5126,
      "count": 72,
      "max": [
        0.9510607719421387,
        1.0,
        1.0
      ],
      "min": [
        -0.9510607719421387,
        -1.0,
        -1.0
      ],
      "type": "VEC3"
    },
    {
      "bufferView": 1,
      "byteOffset": 32480,
      "componentType": 5126,
      "count": 72,
      "max": [
        1.0,
        1.0
      ],
      "min": [
        0.0,
        0.0
      ],
      "type": "VEC2"
    },
    {
      "bufferView": 0,
      "byteOffset": 86016,
      "componentType": 5125,
      "count": 240,
      "type": "SCALAR"
    }
  ],
  "asset": {
    "extras": {
      "author": "3d-Pauer (https://sketchfab.com/3d-Pauer)",
      "license": "CC-BY-4.0 (http://creativecommons.org/licenses/by/4.0/)",
      "source": "https://sketchfab.com/3d-models/santa-hat-73e47e8d858f4d5992508da5987951b2",
      "title": "Santa Hat"
    },
    "generator": "Sketchfab-12.68.0",
    "version": "2.0"
  },
  "bufferViews": [
    {
      "buffer": 0,
      "byteLength": 86976,
      "name": "floatBufferViews",
      "target": 34963
    },
    {
      "buffer": 0,
      "byteLength": 33056,
      "byteOffset": 86976,
      "byteStride": 8,
      "name": "floatBufferViews",
      "target": 34962
    },
    {
      "buffer": 0,
      "byteLength": 99168,
      "byteOffset": 120032,
      "byteStride": 12,
      "name": "floatBufferViews",
      "target": 34962
    }
  ],
  "buffers": [
    {
      "byteLength": 219200,
      "uri": "scene.bin"
    }
  ],
  "extensionsUsed": [
    "KHR_materials_unlit"
  ],
  "images": [
    {
      "uri": "textures/material_baseColor.png"
    },
    {
      "uri": "textures/Fell_baseColor.png"
    },
    {
      "uri": "textures/Bobbel_baseColor.png"
    }
  ],
  "materials": [
    {
      "doubleSided": true,
      "extensions": {
        "KHR_materials_unlit": {}
      },
      "name": "material",
      "pbrMetallicRoughness": {
        "baseColorTexture": {
          "index": 0
        },
        "metallicFactor": 0.0
      }
    },
    {
      "doubleSided": true,
      "extensions": {
        "KHR_materials_unlit": {}
      },
      "name": "Fell",
      "pbrMetallicRoughness": {
        "baseColorTexture": {
          "index": 1
        },
        "metallicFactor": 0.0
      }
    },
    {
      "doubleSided": true,
      "extensions": {
        "KHR_materials_unlit": {}
      },
      "name": "Bobbel",
      "pbrMetallicRoughness": {
        "baseColorTexture": {
          "index": 2
        },
        "metallicFactor": 0.0
      }
    }
  ],
  "meshes": [
    {
      "name": "Object_0",
      "primitives": [
        {
          "attributes": {
            "NORMAL": 1,
            "POSITION": 0,
            "TEXCOORD_0": 2
          },
          "indices": 3,
          "material": 0,
          "mode": 4
        }
      ]
    },
    {
      "name": "Object_1",
      "primitives": [
        {
          "attributes": {
            "NORMAL": 5,
            "POSITION": 4,
            "TEXCOORD_0": 6
          },
          "indices": 7,
          "material": 1,
          "mode": 4
        }
      ]
    },
    {
      "name": "Object_2",
      "primitives": [
        {
          "attributes": {
            "NORMAL": 9,
            "POSITION": 8,
            "TEXCOORD_0": 10
          },
          "indices": 11,
          "material": 2,
          "mode": 4
        }
      ]
    }
  ],
  "nodes": [
    {
      "children": [
        1
      ],
      "matrix": [
        1.0,
        0.0,
        0.0,
        0.0,
        0.0,
        2.220446049250313e-16,
        -1.0,
        0.0,
        0.0,
        1.0,
        2.220446049250313e-16,
        0.0,
        0.0,
        0.0,
        0.0,
        1.0
      ],
      "name": "Sketchfab_model"
    },
    {
      "children": [
        2
      ],
      "name": "root"
    },
    {
      "children": [
        3,
        5,
        7
      ],
      "matrix": [
        1.0,
        0.0,
        0.0,
        0.0,
        0.0,
        2.220446049250313e-16,
        1.0,
        0.0,
        0.0,
        -1.0,
        2.220446049250313e-16,
        0.0,
        0.0,
        0.0,
        0.0,
        1.0
      ],
      "name": "GLTF_SceneRootNode"
    },
    {
      "children": [
        4
      ],
      "matrix": [
        -0.9987962840561675,
        0.0,
        -0.04905082013169093,
        0.0,
        0.0,
        1.0,
        0.0,
        0.0,
        0.04905082013169093,
        0.0,
        -0.9987962840561675,
        0.0,
        -1.0482831001281738,
        0.0,
        -0.02572500705718994,
        1.0
      ],
      "name": "Circle_0"
    },
    {
      "mesh": 0,
      "name": "Object_4"
    },
    {
      "children": [
        6
      ],
      "matrix": [
        -1.0102764889855684,
        0.0,
        -0.04961461224431289,
        0.0,
        0.0,
        1.0114941596984863,
        0.0,
        0.0,
        0.04961461224431289,
        0.0,
        -1.0102764889855684,
        0.0,
        -1.0482831001281738,
        0.0,
        -0.02572500705718994,
        1.0
      ],
      "name": "Circle.001_1"
    },
    {
      "mesh": 1,
      "name": "Object_6"
    },
    {
      "children": [
        8
      ],
      "matrix": [
        0.3861693739891052,
        0.0,
        0.0,
        0.0,
        0.0,
        0.3861693739891052,
        0.0,
        0.0,
        0.0,
        0.0,
        0.3861693739891052,
        0.0,
        0.4405706822872162,
        -0.3646102249622345,
        0.0,
        1.0
      ],
      "name": "Icosphere_2"
    },
    {
      "mesh": 2,
      "name": "Object_8"
    }
  ],
  "samplers": [
    {
      "magFilter": 9729,
      "minFilter": 9987,
      "wrapS": 10497,
      "wrapT": 10497
    }
  ],
  "scene": 0,
  "scenes": [
    {
      "name": "Sketchfab_Scene",
      "nodes": [
        0
      ]
    }
  ],
  "textures": [
    {
      "sampler": 0,
      "source": 0
    },
    {
      "sampler": 0,
      "source": 1
    },
    {
      "sampler": 0,
      "source": 2
    }
  ]
}
